<svg width="60" height="60" viewBox="0 0 60 60" fill="none" xmlns="http://www.w3.org/2000/svg">
<g clip-path="url(#clip0_97_82)">
<path d="M30 5.625C43.4711 5.625 54.375 16.5268 54.375 30C54.375 43.4711 43.4732 54.375 30 54.375C16.5289 54.375 5.625 43.4732 5.625 30C5.625 16.5289 16.5268 5.625 30 5.625ZM30 0.9375C13.9492 0.9375 0.9375 13.9492 0.9375 30C0.9375 46.0508 13.9492 59.0625 30 59.0625C46.0508 59.0625 59.0625 46.0508 59.0625 30C59.0625 13.9492 46.0508 0.9375 30 0.9375ZM30 7.5C17.5736 7.5 7.5 17.5736 7.5 30C7.5 42.4264 17.5736 52.5 30 52.5C42.4264 52.5 52.5 42.4264 52.5 30C52.5 17.5736 42.4264 7.5 30 7.5ZM30 12.6562C32.3299 12.6562 34.2188 14.5451 34.2188 16.875C34.2188 19.2049 32.3299 21.0938 30 21.0938C27.6701 21.0938 25.7812 19.2049 25.7812 16.875C25.7812 14.5451 27.6701 12.6562 30 12.6562ZM43.7978 24.1433C40.4331 24.9377 37.2926 25.6372 34.172 25.9957C34.2717 37.8343 35.6141 40.4159 37.106 44.2325C37.5299 45.3177 36.9939 46.5409 35.9087 46.9648C34.8234 47.3886 33.6002 46.8526 33.1764 45.7675C32.1563 43.1532 31.1741 41.0054 30.5677 36.5625H29.4326C28.8271 40.9982 27.8466 43.1494 26.8237 45.7675C26.4001 46.852 25.1773 47.3889 24.0915 46.9648C23.0064 46.5409 22.4704 45.3176 22.8942 44.2325C24.384 40.4191 25.7284 37.841 25.8282 25.9957C22.7077 25.6373 19.5671 24.9379 16.2023 24.1433C15.1945 23.9053 14.5704 22.8955 14.8084 21.8876C15.0464 20.8796 16.0561 20.2556 17.0641 20.4936C28.3945 23.1689 31.6286 23.1635 42.9362 20.4936C43.9439 20.2557 44.9539 20.8796 45.192 21.8876C45.4297 22.8955 44.8056 23.9054 43.7978 24.1433Z" fill="#9333EA"/>
</g>
<defs>
<clipPath id="clip0_97_82">
<rect width="60" height="60" fill="white"/>
</clipPath>
</defs>
</svg>
