<svg width="76" height="76" viewBox="0 0 76 76" fill="none" xmlns="http://www.w3.org/2000/svg">
<g clip-path="url(#clip0_97_21)">
<path d="M42.7385 6.89782C42.267 6.87756 41.8409 7.19323 41.7268 7.65491C41.6111 8.11492 41.8366 8.59319 42.2643 8.79872C46.936 11.0408 50.3813 15.1568 52.226 20.7022C54.274 26.8586 53.28 33.2576 50.1056 38.1678L54.2454 40.2401C54.7399 40.4878 54.9397 41.0884 54.6917 41.5819C54.5686 41.8295 54.3562 42.0022 54.1133 42.083C53.8704 42.1639 53.5969 42.1526 53.35 42.0282L48.9156 39.8084C48.4264 40.4128 47.9045 40.9888 47.3422 41.529L51.0284 43.3749C51.5229 43.6225 51.7224 44.2222 51.4748 44.7166C51.3513 44.9632 51.1392 45.137 50.8964 45.2178C50.6534 45.2986 50.3796 45.2865 50.133 45.163L45.7008 42.9435C45.0089 43.4645 44.2702 43.9274 43.5003 44.35L47.232 46.2187C47.7264 46.4664 47.9259 47.066 47.6783 47.5604C47.5548 47.807 47.3428 47.9808 47.0999 48.0616C46.857 48.1424 46.5832 48.1302 46.3366 48.0067L41.1683 45.4187C40.9472 45.5018 40.7362 45.6025 40.5103 45.6776L40.5085 45.6782C36.4804 47.0182 32.2044 46.9062 28.1445 45.3532C27.6627 45.1689 27.1237 45.3798 26.8929 45.8391L24.934 49.7526L16.7469 65.925C15.8514 67.71 16.5768 69.8905 18.363 70.7834L20.8289 72.0182C21.7221 72.4662 22.7131 72.5085 23.5936 72.2156C24.4732 71.923 25.2405 71.2957 25.6867 70.4064L33.2487 55.4726C38.2951 57.1716 43.8076 57.2275 49.0427 55.4861C62.1232 51.1347 69.2246 36.9518 64.8735 23.8723C61.5357 13.8386 53.0552 7.33478 42.7385 6.89782ZM22.4218 67.337C21.898 67.5112 21.3315 67.2275 21.1573 66.7038C20.983 66.18 21.2667 65.6135 21.7905 65.4393C22.3142 65.265 22.8808 65.5487 23.055 66.0725C23.2293 66.5962 22.9456 67.1627 22.4218 67.337ZM24.8998 63.042C24.6532 63.5362 24.0516 63.7363 23.5581 63.4884C23.0636 63.2407 22.8638 62.6402 23.1118 62.1467C23.3584 61.6526 23.96 61.4525 24.4535 61.7003C24.9477 61.9469 25.1475 62.5476 24.8998 63.042ZM26.7995 59.2484C26.5529 59.7426 25.9513 59.9427 25.4578 59.6947C24.9633 59.4472 24.7635 58.8465 25.0115 58.353C25.2581 57.8588 25.8597 57.6587 26.3532 57.9067C26.8474 58.1533 27.0472 58.754 26.7995 59.2484Z" fill="white"/>
</g>
<defs>
<clipPath id="clip0_97_21">
<rect width="60" height="60" fill="white" transform="translate(0 18.9391) rotate(-18.4002)"/>
</clipPath>
</defs>
</svg>
