<svg width="60" height="60" viewBox="0 0 60 60" fill="none" xmlns="http://www.w3.org/2000/svg">
<g clip-path="url(#clip0_97_84)">
<path fill-rule="evenodd" clip-rule="evenodd" d="M27.5 32.5002C27.5 33.8809 28.6193 35.0002 30 35.0002C31.3808 35.0002 32.5 33.8809 32.5 32.5002V25.0002C32.5 23.6195 31.3808 22.5002 30 22.5002C28.6193 22.5002 27.5 23.6195 27.5 25.0002V32.5002ZM32.5 39.9722C32.5 38.5914 31.3808 37.4722 30 37.4722C28.6193 37.4722 27.5 38.5914 27.5 39.9722V40.0002C27.5 41.3809 28.6193 42.5002 30 42.5002C31.3808 42.5002 32.5 41.3809 32.5 40.0002V39.9722ZM23.4434 11.6536C26.301 6.51 33.6983 6.51 36.5558 11.6536L53.0583 41.3579C55.8353 46.3569 52.2205 52.5002 46.502 52.5002H13.4971C7.77848 52.5002 4.16373 46.3569 6.94093 41.3579L23.4434 11.6536Z" fill="#C90000"/>
</g>
<defs>
<clipPath id="clip0_97_84">
<rect width="60" height="60" fill="white"/>
</clipPath>
</defs>
</svg>
