<svg width="60" height="60" viewBox="0 0 60 60" fill="none" xmlns="http://www.w3.org/2000/svg">
<path d="M10 47.5V15.5C10 12.6997 10 11.2996 10.545 10.2301C11.0243 9.28923 11.7892 8.52432 12.7301 8.04497C13.7996 7.5 15.1997 7.5 18 7.5H42C44.8002 7.5 46.2005 7.5 47.27 8.04497C48.2108 8.52432 48.9757 9.28923 49.455 10.2301C50 11.2996 50 12.6997 50 15.5V42.5H15C12.2386 42.5 10 44.7385 10 47.5ZM10 47.5C10 50.2615 12.2386 52.5 15 52.5H50M22.5 17.5H37.5M22.5 27.5H37.5M47.5 42.5V52.5" stroke="#22C55E" stroke-width="5" stroke-linecap="round" stroke-linejoin="round"/>
</svg>
