<svg width="60" height="60" viewBox="0 0 60 60" fill="none" xmlns="http://www.w3.org/2000/svg">
<path d="M40 17.5V15.5C40 12.6997 40 11.2996 39.455 10.2301C38.9757 9.28923 38.2107 8.52432 37.27 8.04497C36.2005 7.5 34.8003 7.5 32 7.5H28C25.1997 7.5 23.7996 7.5 22.7301 8.04497C21.7892 8.52432 21.0243 9.28923 20.545 10.2301C20 11.2996 20 12.6997 20 15.5V17.5M22.5 37.5V30M37.5 37.5V30M7.56802 25.0658C8.4694 25.9298 18.2143 35 30 35C41.7858 35 51.5305 25.9298 52.432 25.0658M7.56802 25.0658C7.5 26.2325 7.5 27.6663 7.5 29.5V40.5C7.5 44.7005 7.5 46.8005 8.31745 48.405C9.0365 49.8162 10.1839 50.9635 11.5951 51.6825C13.1994 52.5 15.2996 52.5 19.5 52.5H40.5C44.7005 52.5 46.8005 52.5 48.405 51.6825C49.8162 50.9635 50.9635 49.8162 51.6825 48.405C52.5 46.8005 52.5 44.7005 52.5 40.5V29.5C52.5 27.6663 52.5 26.2325 52.432 25.0658M7.56802 25.0658C7.65582 23.5603 7.8569 22.499 8.31745 21.5951C9.0365 20.1839 10.1839 19.0365 11.5951 18.3175C13.1994 17.5 15.2996 17.5 19.5 17.5H40.5C44.7005 17.5 46.8005 17.5 48.405 18.3175C49.8162 19.0365 50.9635 20.1839 51.6825 21.5951C52.143 22.499 52.3442 23.5603 52.432 25.0658" stroke="#22C55E" stroke-width="5" stroke-linecap="round" stroke-linejoin="round"/>
</svg>
