<svg width="41" height="44" viewBox="0 0 41 44" fill="none" xmlns="http://www.w3.org/2000/svg">
<path d="M16.2078 25.2313L27.5353 13.0749C27.6455 12.9566 27.8236 12.9566 27.9338 13.0749L33.9416 19.5222C34.0518 19.6405 34.0518 19.8316 33.9416 19.9499L22.6141 32.1063C22.0811 32.6783 21.3572 33 20.6025 33H16.9381C16.0746 33 15.375 32.2493 15.375 31.3225V27.39C15.375 26.5801 15.6748 25.8033 16.2078 25.2313ZM37.9071 11.8058L35.1242 8.81925C34.1235 7.74538 32.5015 7.74538 31.5008 8.81925L28.6411 11.8882L35.0473 18.7632L37.9071 15.6942C38.9077 14.6204 38.9077 12.8796 37.9071 11.8058ZM29.4688 27.5C29.4688 28.2604 28.896 28.875 28.1875 28.875H27.4367L24.8742 31.625H28.1875C28.896 31.625 29.4688 32.2396 29.4688 33C29.4688 33.7604 28.896 34.375 28.1875 34.375H20.7204H16.6562H8.96875C8.26022 34.375 7.6875 33.7604 7.6875 33C7.6875 32.2396 8.26022 31.625 8.96875 31.625H14.0938V28.875H8.96875C8.26022 28.875 7.6875 28.2604 7.6875 27.5C7.6875 26.7396 8.26022 26.125 8.96875 26.125H14.2603C14.4371 25.4623 14.7523 24.849 15.22 24.3471L16.1258 23.375H8.96875C8.26022 23.375 7.6875 22.7604 7.6875 22C7.6875 21.2396 8.26022 20.625 8.96875 20.625H18.6883L21.2508 17.875H8.96875C8.26022 17.875 7.6875 17.2604 7.6875 16.5C7.6875 15.7396 8.26022 15.125 8.96875 15.125H23.8133L26.3758 12.375H8.96875C8.26022 12.375 7.6875 11.7604 7.6875 11C7.6875 10.2396 8.26022 9.625 8.96875 9.625H28.9281L30.595 7.84712C31.3202 7.0675 32.2862 6.6385 33.3125 6.6385C33.7571 6.6385 34.1863 6.73338 34.5938 6.88875V4.125C34.5938 2.60562 33.447 1.375 32.0312 1.375H3.84375C2.42797 1.375 1.28125 2.60562 1.28125 4.125V39.875C1.28125 41.3944 2.42797 42.625 3.84375 42.625H32.0312C33.447 42.625 34.5938 41.3944 34.5938 39.875V21.1942L29.3073 26.8675C29.4021 27.06 29.4688 27.2676 29.4688 27.5Z" fill="#22C55E"/>
</svg>
