<svg width="30" height="35" viewBox="0 0 30 35" fill="none" xmlns="http://www.w3.org/2000/svg">
<path d="M12.2547 20.0703L20.8194 10.4005C20.9027 10.3064 21.0374 10.3064 21.1207 10.4005L25.6632 15.5291C25.7465 15.6231 25.7465 15.7752 25.6632 15.8692L17.0984 25.5391C16.6954 25.9941 16.1481 26.25 15.5775 26.25H12.8069C12.1539 26.25 11.625 25.6528 11.625 24.9156V21.7875C11.625 21.1433 11.8517 20.5253 12.2547 20.0703ZM28.6614 9.39094L26.5573 7.01531C25.8007 6.16109 24.5743 6.16109 23.8177 7.01531L21.6554 9.45656L26.4992 14.9253L28.6614 12.4841C29.418 11.6298 29.418 10.2452 28.6614 9.39094ZM22.2812 21.875C22.2812 22.4798 21.8482 22.9688 21.3125 22.9688H20.7448L18.8073 25.1562H21.3125C21.8482 25.1562 22.2812 25.6452 22.2812 26.25C22.2812 26.8548 21.8482 27.3438 21.3125 27.3438H15.6666H12.5937H6.78125C6.24553 27.3438 5.8125 26.8548 5.8125 26.25C5.8125 25.6452 6.24553 25.1562 6.78125 25.1562H10.6562V22.9688H6.78125C6.24553 22.9688 5.8125 22.4798 5.8125 21.875C5.8125 21.2702 6.24553 20.7812 6.78125 20.7812H10.7822C10.9159 20.2541 11.1542 19.7663 11.5078 19.367L12.1927 18.5938H6.78125C6.24553 18.5938 5.8125 18.1048 5.8125 17.5C5.8125 16.8952 6.24553 16.4062 6.78125 16.4062H14.1302L16.0677 14.2188H6.78125C6.24553 14.2188 5.8125 13.7298 5.8125 13.125C5.8125 12.5202 6.24553 12.0312 6.78125 12.0312H18.0052L19.9427 9.84375H6.78125C6.24553 9.84375 5.8125 9.35484 5.8125 8.75C5.8125 8.14516 6.24553 7.65625 6.78125 7.65625H21.8724L23.1328 6.24203C23.6811 5.62187 24.4115 5.28063 25.1875 5.28063C25.5237 5.28063 25.8482 5.35609 26.1562 5.47969V3.28125C26.1562 2.07266 25.2892 1.09375 24.2187 1.09375H2.90625C1.83578 1.09375 0.96875 2.07266 0.96875 3.28125V31.7188C0.96875 32.9273 1.83578 33.9062 2.90625 33.9062H24.2187C25.2892 33.9062 26.1562 32.9273 26.1562 31.7188V16.8591L22.1592 21.3719C22.2309 21.525 22.2812 21.6902 22.2812 21.875Z" fill="#22C55E"/>
</svg>
