<svg width="60" height="60" viewBox="0 0 60 60" fill="none" xmlns="http://www.w3.org/2000/svg">
<path d="M5.86485 28.1253C5.31145 26.4665 5 24.8005 5 23.1511C5 8.37375 18.7504 1.65659 30 13.7469C41.2495 1.65659 55 8.37327 55 23.151C55 24.8004 54.6885 26.4665 54.1353 28.1253H46.5903L46.3102 28.125C44.946 28.1228 43.7343 28.1208 42.6318 28.6118C41.529 29.1028 40.7197 30.005 39.8082 31.021L39.6213 31.2295L37.048 34.0885C36.8565 34.3012 36.7 34.475 36.5617 34.6233C36.4307 34.4698 36.282 34.2897 36.1002 34.0692L27.2222 23.308C26.8732 22.8848 26.5 22.432 26.135 22.096C25.7098 21.7047 25.0812 21.2645 24.2024 21.2118C23.3236 21.159 22.6469 21.5207 22.1779 21.8583C21.7752 22.1483 21.3504 22.5531 20.9534 22.9314L17.1293 26.5735C15.9499 27.6968 15.7038 27.8882 15.4464 27.991C15.1889 28.094 14.8788 28.1253 13.25 28.1253H5.86485Z" fill="white"/>
<path d="M7.51172 31.8755C10.9642 38.2802 17.3264 44.2857 22.405 48.427C25.7349 51.1425 27.3999 52.5002 30.0007 52.5002C32.6014 52.5002 34.2664 51.1425 37.5964 48.427C42.6749 44.2857 49.0372 38.2802 52.4897 31.8755H46.5909C44.7804 31.8755 44.4372 31.9132 44.1579 32.0377C43.8789 32.162 43.6209 32.392 42.4092 33.7382L39.7722 36.6682C39.3774 37.1072 38.9604 37.571 38.5594 37.9072C38.0967 38.2952 37.4074 38.7305 36.4747 38.7105C35.5422 38.6902 34.8727 38.2262 34.4267 37.8187C34.0407 37.4657 33.6442 36.9847 33.2692 36.5297L24.3879 25.7645C24.219 25.56 24.0817 25.3935 23.9604 25.2515C23.8231 25.378 23.6668 25.5267 23.4747 25.7097L19.5343 29.4627C18.6444 30.3127 17.8548 31.067 16.8398 31.4732C15.8247 31.8792 14.7327 31.8775 13.502 31.8757L7.51172 31.8755Z" fill="white"/>
</svg>
