<svg width="27" height="27" viewBox="0 0 27 27" fill="none" xmlns="http://www.w3.org/2000/svg">
<g clip-path="url(#clip0_112_63)">
<path fill-rule="evenodd" clip-rule="evenodd" d="M23.2841 20.1057C21.6683 19.5682 19.9311 19.1666 18.1027 18.9068C18.3516 17.4445 18.484 15.9123 18.5262 14.3437H25.2804C25.1294 16.4708 24.4147 18.4393 23.2841 20.1057ZM16.3974 24.9404C16.9594 23.5828 17.4192 22.1156 17.7727 20.5698C19.2898 20.7942 20.7444 21.1258 22.1223 21.5612C20.6002 23.1837 18.6241 24.3776 16.3974 24.9404ZM14.3193 25.2711C14.0476 25.2906 13.7767 25.3125 13.5 25.3125C13.2232 25.3125 12.9533 25.2906 12.6807 25.2711C11.9627 23.776 11.3813 22.1122 10.951 20.3462C11.7897 20.2728 12.6394 20.2298 13.5 20.2298C14.3606 20.2298 15.2103 20.2728 16.0498 20.3462C15.6187 22.1122 15.0373 23.776 14.3193 25.2711ZM4.87772 21.5612C6.25557 21.1258 7.71019 20.7942 9.22725 20.5698C9.58078 22.1156 10.0406 23.5828 10.6026 24.9404C8.3759 24.3776 6.40069 23.1837 4.87772 21.5612ZM3.71588 20.1057C2.58526 18.4393 1.87059 16.4708 1.71956 14.3437H8.47378C8.51597 15.9123 8.64844 17.4445 8.89734 18.9068C7.06894 19.1666 5.33166 19.5682 3.71588 20.1057ZM3.71588 6.8943C5.33166 7.43177 7.06894 7.8342 8.89734 8.09323C8.64844 9.55545 8.51597 11.0877 8.47378 12.6562H1.71956C1.87059 10.5292 2.58526 8.5607 3.71588 6.8943ZM10.6026 2.05958C10.0406 3.41717 9.58078 4.88444 9.22725 6.43019C7.71019 6.2066 6.25557 5.87417 4.87772 5.4388C6.40069 3.81627 8.3759 2.62236 10.6026 2.05958ZM12.6807 1.72885C12.9533 1.71029 13.2232 1.6875 13.5 1.6875C13.7767 1.6875 14.0476 1.71029 14.3193 1.72885C15.0373 3.22398 15.6187 4.88868 16.0498 6.6538C15.2103 6.72721 14.3606 6.77024 13.5 6.77024C12.6394 6.77024 11.7897 6.72721 10.951 6.6538C11.3813 4.88868 11.9627 3.22398 12.6807 1.72885ZM16.8362 14.3437C16.7906 15.8296 16.6556 17.291 16.4017 18.6941C15.4516 18.6114 14.4855 18.5625 13.5 18.5625C12.5145 18.5625 11.5484 18.6114 10.5992 18.6941C10.3444 17.291 10.2094 15.8296 10.1647 14.3437H16.8362ZM10.1647 12.6562C10.2094 11.1704 10.3444 9.70903 10.5992 8.30587C11.5484 8.38856 12.5145 8.4375 13.5 8.4375C14.4855 8.4375 15.4516 8.38856 16.4008 8.30587C16.6556 9.70903 16.7906 11.1704 16.8362 12.6562H10.1647ZM22.1223 5.4388C20.7444 5.87417 19.2898 6.2066 17.7727 6.43019C17.4192 4.88444 16.9594 3.41717 16.3974 2.05958C18.6241 2.62236 20.6002 3.81627 22.1223 5.4388ZM23.2841 6.8943C24.4147 8.5607 25.1294 10.5292 25.2804 12.6562H18.5262C18.484 11.0877 18.3516 9.55545 18.1027 8.09323C19.9311 7.8342 21.6683 7.43177 23.2841 6.8943ZM13.5 0C6.04462 0 0 6.04378 0 13.5C0 20.9562 6.04462 27 13.5 27C20.9554 27 27 20.9562 27 13.5C27 6.04378 20.9554 0 13.5 0Z" fill="#22C55E"/>
</g>
<defs>
<clipPath id="clip0_112_63">
<rect width="27" height="27" fill="white"/>
</clipPath>
</defs>
</svg>
