<svg width="35" height="35" viewBox="0 0 35 35" fill="none" xmlns="http://www.w3.org/2000/svg">
<path d="M20.3792 21.8345L24.7461 17.4675L20.3792 13.1006" stroke="black" stroke-width="2.18347" stroke-linecap="round" stroke-linejoin="round"/>
<path d="M24.7458 17.4674H4.36675M14.5563 23.29V27.6569C14.5563 28.043 14.7096 28.4133 14.9826 28.6862C15.2556 28.9592 15.6258 29.1126 16.0119 29.1126H29.1127C29.4988 29.1126 29.869 28.9592 30.142 28.6862C30.415 28.4133 30.5684 28.043 30.5684 27.6569V7.27791C30.5684 6.89185 30.415 6.5216 30.142 6.24861C29.869 5.97563 29.4988 5.82227 29.1127 5.82227H16.0119C15.6258 5.82227 15.2556 5.97563 14.9826 6.24861C14.7096 6.5216 14.5563 6.89185 14.5563 7.27791V11.6448" stroke="black" stroke-width="2.18347" stroke-linecap="round" stroke-linejoin="round"/>
</svg>
