<svg width="35" height="35" viewBox="0 0 35 35" fill="none" xmlns="http://www.w3.org/2000/svg">
<path d="M14.5564 21.8345L10.1895 17.4675L14.5564 13.1006" stroke="black" stroke-width="2.18347" stroke-linecap="round" stroke-linejoin="round"/>
<path d="M10.1898 17.4674H30.5688M20.3793 23.29V27.6569C20.3793 28.043 20.2259 28.4133 19.9529 28.6862C19.6799 28.9592 19.3097 29.1126 18.9236 29.1126H5.82283C5.43677 29.1126 5.06652 28.9592 4.79354 28.6862C4.52055 28.4133 4.36719 28.043 4.36719 27.6569V7.27791C4.36719 6.89185 4.52055 6.5216 4.79354 6.24861C5.06652 5.97563 5.43677 5.82227 5.82283 5.82227H18.9236C19.3097 5.82227 19.6799 5.97563 19.9529 6.24861C20.2259 6.5216 20.3793 6.89185 20.3793 7.27791V11.6448" stroke="black" stroke-width="2.18347" stroke-linecap="round" stroke-linejoin="round"/>
</svg>
