<svg width="60" height="60" viewBox="0 0 60 60" fill="none" xmlns="http://www.w3.org/2000/svg">
<g clip-path="url(#clip0_97_41)">
<path fill-rule="evenodd" clip-rule="evenodd" d="M12.5 23.75C12.5 17.5368 17.5368 12.5 23.75 12.5C29.9633 12.5 35 17.5368 35 23.75C35 29.9633 29.9633 35 23.75 35C17.5368 35 12.5 29.9633 12.5 23.75Z" fill="white"/>
<path d="M35.918 30.158C35.8042 30.3735 35.8525 30.6423 36.0482 30.7873C37.5022 31.8635 39.3015 32.5 41.2492 32.5C46.0817 32.5 49.9992 28.5825 49.9992 23.75C49.9992 18.9175 46.0817 15 41.2492 15C39.3015 15 37.5022 15.6365 36.0482 16.7128C35.8525 16.8578 35.8042 17.1264 35.918 17.342C36.9277 19.2555 37.4992 21.436 37.4992 23.75C37.4992 26.064 36.9277 28.2445 35.918 30.158Z" fill="white"/>
<path fill-rule="evenodd" clip-rule="evenodd" d="M11.6026 39.2482C14.6835 37.911 18.7259 37.5 23.7496 37.5C28.7778 37.5 32.823 37.9117 35.905 39.252C39.2623 40.7117 41.3028 43.1982 42.3723 46.709C42.8735 48.3545 41.6375 50 39.9343 50H7.56978C5.86448 50 4.62588 48.352 5.12868 46.7035C6.19961 43.1923 8.24321 40.7065 11.6026 39.2482Z" fill="white"/>
<path d="M37.0457 35.0909C36.0107 35.1552 35.9499 36.5457 36.9009 36.9592C39.5069 38.0924 41.4692 39.7607 42.8764 41.8899C44.0312 43.6372 45.8244 44.9999 47.9187 44.9999H52.3702C54.1382 44.9999 55.4282 43.2432 54.8062 41.5269C54.7704 41.4282 54.7332 41.3302 54.6947 41.2329C53.8387 39.0714 52.3714 37.4802 50.1989 36.4659C48.1592 35.5137 45.6057 35.1207 42.5974 35.0019L42.5479 34.9999H42.4987C40.7267 34.9999 38.8759 34.9772 37.0457 35.0909Z" fill="white"/>
</g>
<defs>
<clipPath id="clip0_97_41">
<rect width="60" height="60" fill="white"/>
</clipPath>
</defs>
</svg>
