<svg width="60" height="60" viewBox="0 0 60 60" fill="none" xmlns="http://www.w3.org/2000/svg">
<g clip-path="url(#clip0_97_41)">
<path fill-rule="evenodd" clip-rule="evenodd" d="M13 23.75C13 17.5368 18.0368 12.5 24.25 12.5C30.4633 12.5 35.5 17.5368 35.5 23.75C35.5 29.9633 30.4633 35 24.25 35C18.0368 35 13 29.9633 13 23.75Z" fill="#22C55E"/>
<path d="M37.0605 28.158C36.9468 28.3735 36.995 28.6423 37.1908 28.7873C38.6448 29.8635 40.444 30.5 42.3918 30.5C47.2243 30.5 51.1418 26.5825 51.1418 21.75C51.1418 16.9175 47.2243 13 42.3918 13C40.444 13 38.6448 13.6365 37.1908 14.7128C36.995 14.8578 36.9468 15.1264 37.0605 15.342C38.0703 17.2555 38.6418 19.436 38.6418 21.75C38.6418 24.064 38.0703 26.2445 37.0605 28.158Z" fill="#22C55E"/>
<path fill-rule="evenodd" clip-rule="evenodd" d="M11.587 38.7482C14.6679 37.411 18.7103 37 23.734 37C28.7621 37 32.8074 37.4117 35.8894 38.752C39.2466 40.2117 41.2871 42.6982 42.3566 46.209C42.8579 47.8545 41.6219 49.5 39.9186 49.5H7.55416C5.84886 49.5 4.61026 47.852 5.11306 46.2035C6.18398 42.6923 8.22758 40.2065 11.587 38.7482Z" fill="#22C55E"/>
<path d="M37.0457 35.0909C36.0107 35.1552 35.9499 36.5457 36.9009 36.9592C39.5069 38.0924 41.4692 39.7607 42.8764 41.8899C44.0312 43.6372 45.8244 44.9999 47.9187 44.9999H52.3702C54.1382 44.9999 55.4282 43.2432 54.8062 41.5269C54.7704 41.4282 54.7332 41.3302 54.6947 41.2329C53.8387 39.0714 52.3714 37.4802 50.1989 36.4659C48.1592 35.5137 45.6057 35.1207 42.5974 35.0019L42.5479 34.9999H42.4987C40.7267 34.9999 38.8759 34.9772 37.0457 35.0909Z" fill="#22C55E"/>
</g>
<defs>
<clipPath id="clip0_97_41">
<rect width="60" height="60" fill="white"/>
</clipPath>
</defs>
</svg>
